<svg width="500" height="218" viewBox="0 0 454 218" fill="none" xmlns="http://www.w3.org/2000/svg">
<g clip-path="url(#clip0)">
<path d="M451.034 29L451.034 117L325.58 178.967L325.58 84L451.034 29Z" fill="#3F9EE2"/>
<path d="M-9.6875 94.0312H15.3438L15.9062 94.5938V177.562L15.3438 178.125H-0.96875L-1.53125 177.562V113.438C-7.34375 107.906 -10.25 101.625 -10.25 94.5938L-9.6875 94.0312ZM35.4531 93.5391H53.1719L53.7344 94.1016V116.602H64.4219L64.9844 117.164V135.164L64.4219 135.727H53.7344V146.695C53.7344 153.211 56.6406 157.523 62.4531 159.633L68.0781 160.195H74.8281L75.3906 160.758V178.477L74.8281 179.039H67.5156C52.4219 179.039 42.1094 171.914 36.5781 157.664C35.4531 154.664 34.8906 151.477 34.8906 148.102V135.727H23.9219L23.3594 135.164V117.164L23.9219 116.602H34.8906V94.1016L35.4531 93.5391ZM117.016 94.0312L117.578 94.5938V152.25C117.578 164.625 111.109 173.062 98.1719 177.562L92.5469 178.125H84.1094L83.5469 177.562V161.25L84.1094 160.688H92.8281C96.9531 160.688 99.3906 157.875 100.141 152.25V118.5C97.1875 119.25 94.5625 119.625 92.2656 119.625L91.9844 119.344V102.75L95.9219 101.344C98.7344 99.5625 100.141 97.2188 100.141 94.3125L100.422 94.0312H117.016ZM122.359 116.883H139.797L140.359 117.445V149.789C140.359 153.352 142.703 156.539 147.391 159.352L150.766 160.195H153.578C158.312 160.195 161.781 157.008 163.984 150.633L164.266 146.133V117.445L164.828 116.883H181.984L182.547 117.445V148.945C182.547 160.523 176.641 169.523 164.828 175.945C160.703 177.82 156.766 178.758 153.016 178.758H151.891C140.641 178.758 131.734 173.227 125.172 162.164C122.922 157.898 121.797 153.023 121.797 147.539V117.445L122.359 116.883ZM222.203 116.602H226.984L227.547 117.164V135.164L226.984 135.727H216.578C212.594 135.727 209.219 138.352 206.453 143.602L205.891 146.414V178.477L205.328 179.039H187.328L186.766 178.477V152.602C186.766 140.414 189.766 131.602 195.766 126.164C201.438 119.789 210.25 116.602 222.203 116.602ZM236.406 93.8203H253.844L254.406 94.3828V112.383L253.844 112.945H236.406L235.844 112.383V94.3828L236.406 93.8203ZM236.406 116.883H253.844L254.406 117.445V178.195L253.844 178.758H236.406L235.844 178.195V117.445L236.406 116.883ZM270.438 116.602H299.688L300.25 117.164V135.164L299.688 135.727H283.656V136.008C294.531 156.258 299.969 166.945 299.969 168.07V170.039C299.969 175.148 296.781 178.148 290.406 179.039H259.188L258.625 178.477V160.758L259.188 160.195H275.219C264.344 139.664 258.906 129.164 258.906 128.695L258.625 127.289V125.039C258.625 121.477 261.062 118.758 265.938 116.883L270.438 116.602Z" fill="#3F9EE2"/>
<path d="M387 19.6483L450.678 19.6483L322.162 76.8092L264 76.8092L387 19.6483Z" fill="#3F9EE2"/>
<path d="M179 19.6483L242.678 19.6483L114.162 76.8092L56 76.8092L179 19.6483Z" fill="#3F9EE2"/>
<path d="M280 19.6483L343.678 19.6483L215.162 76.8092L157 76.8092L280 19.6483Z" fill="#3F9EE2"/>
</g>
<defs>
<clipPath id="clip0">
<rect width="454" height="218" fill="white"/>
</clipPath>
</defs>
</svg>
