<svg width="289" height="145" viewBox="0 0 289 145" fill="none" xmlns="http://www.w3.org/2000/svg">
<path d="M219.554 27.4582L255.98 27L208.571 45.477L161.14 62.1956L127.517 62.6185L219.554 27.4582Z" fill="#3F9EE2"/>
<path d="M155.704 29.0441L188 29.0441L102.277 61.1772L63.644 62.446L155.704 29.0441Z" fill="#3F9EE2"/>
<path d="M219.554 27.4582L255.98 27L208.571 45.477L161.14 62.1956L127.517 62.6185L219.554 27.4582Z" fill="#3F9EE2"/>
<path d="M93.4652 29.0441L129.891 28.586L82.4601 45.3045L35.0292 62.0231L1.4055 62.446L47.4354 45.745L93.4652 29.0441Z" fill="#3F9EE2"/>
<path d="M2.15625 74.5156H14.6719L14.9531 74.7969V116.281L14.6719 116.562H6.51562L6.23438 116.281V84.2188C3.32812 81.4531 1.875 78.3125 1.875 74.7969L2.15625 74.5156ZM24.7266 74.2695H33.5859L33.8672 74.5508V85.8008H39.2109L39.4922 86.082V95.082L39.2109 95.3633H33.8672V100.848C33.8672 104.105 35.3203 106.262 38.2266 107.316L41.0391 107.598H44.4141L44.6953 107.879V116.738L44.4141 117.02H40.7578C33.2109 117.02 28.0547 113.457 25.2891 106.332C24.7266 104.832 24.4453 103.238 24.4453 101.551V95.3633H18.9609L18.6797 95.082V86.082L18.9609 85.8008H24.4453V74.5508L24.7266 74.2695ZM65.5078 74.5156L65.7891 74.7969V103.625C65.7891 109.812 62.5547 114.031 56.0859 116.281L53.2734 116.562H49.0547L48.7734 116.281V108.125L49.0547 107.844H53.4141C55.4766 107.844 56.6953 106.438 57.0703 103.625V86.75C55.5938 87.125 54.2812 87.3125 53.1328 87.3125L52.9922 87.1719V78.875L54.9609 78.1719C56.3672 77.2812 57.0703 76.1094 57.0703 74.6562L57.2109 74.5156H65.5078ZM68.1797 85.9414H76.8984L77.1797 86.2227V102.395C77.1797 104.176 78.3516 105.77 80.6953 107.176L82.3828 107.598H83.7891C86.1562 107.598 87.8906 106.004 88.9922 102.816L89.1328 100.566V86.2227L89.4141 85.9414H97.9922L98.2734 86.2227V101.973C98.2734 107.762 95.3203 112.262 89.4141 115.473C87.3516 116.41 85.3828 116.879 83.5078 116.879H82.9453C77.3203 116.879 72.8672 114.113 69.5859 108.582C68.4609 106.449 67.8984 104.012 67.8984 101.27V86.2227L68.1797 85.9414ZM118.102 85.8008H120.492L120.773 86.082V95.082L120.492 95.3633H115.289C113.297 95.3633 111.609 96.6758 110.227 99.3008L109.945 100.707V116.738L109.664 117.02H100.664L100.383 116.738V103.801C100.383 97.707 101.883 93.3008 104.883 90.582C107.719 87.3945 112.125 85.8008 118.102 85.8008ZM125.203 74.4102H133.922L134.203 74.6914V83.6914L133.922 83.9727H125.203L124.922 83.6914V74.6914L125.203 74.4102ZM125.203 85.9414H133.922L134.203 86.2227V116.598L133.922 116.879H125.203L124.922 116.598V86.2227L125.203 85.9414ZM142.219 85.8008H156.844L157.125 86.082V95.082L156.844 95.3633H148.828V95.5039C154.266 105.629 156.984 110.973 156.984 111.535V112.52C156.984 115.074 155.391 116.574 152.203 117.02H136.594L136.312 116.738V107.879L136.594 107.598H144.609C139.172 97.332 136.453 92.082 136.453 91.8477L136.312 91.1445V90.0195C136.312 88.2383 137.531 86.8789 139.969 85.9414L142.219 85.8008Z" fill="#3F9EE2"/>
<path d="M268 33L274 71L171.125 111L168 71L268 33Z" fill="#3F9EE2"/>
</svg>
